# xmcd
#
# Track frame offsets: 
#        150
#        15282
#        38465
#        51085
#        68847
#        83930
#        114160
#        128932
#        147382
#        162320
#        175650
#        197182
#        210220
#
# Disc length: 3164 seconds
#
# Revision: 1
# Processed by: cddbd v1.5.2PL0 Copyright (c) Steve Scherf et al.
# Submitted via: ExactAudioCopyFreeDBPlugin 1.0
#
DISCID=a30c5a0d
DTITLE=Sonny Terry And Brownie McGee - Blowing The Fuses
DYEAR=1900
DGENRE=Blues
TTITLE0=Gonna Lay My Body Down
TTITLE1=Drinking In The Blues
TTITLE2=Po'  Boy
TTITLE3=Just Rode In Your Town
TTITLE4=Sun's Gonna Shine
TTITLE5=Everybody's Blue (Feat. Lightnin' Hopkins)
TTITLE6=Trouble In Mind
TTITLE7=I'm A Stranger Here
TTITLE8=Down By The Riverside
TTITLE9=Walk On
TTITLE10=Blues For The Lowlands
TTITLE11=Right On That Shore (Feat. Lightnin' Hopkins)
TTITLE12=Blowin' The Fuses
EXTD=
EXTT0=
EXTT1=
EXTT2=
EXTT3=
EXTT4=
EXTT5=
EXTT6=
EXTT7=
EXTT8=
EXTT9=
EXTT10=
EXTT11=
EXTT12=
PLAYORDER=
